<?xml version="1.0" encoding="UTF-8"?>
<svg width="354px" height="381px" viewBox="0 0 354 381" version="1.1" xmlns="http://www.w3.org/2000/svg" xmlns:xlink="http://www.w3.org/1999/xlink">
    <!-- Generator: Sketch 55.2 (78181) - https://sketchapp.com -->
    <title>编组</title>
    <desc>Created with Sketch.</desc>
    <defs>
        <linearGradient x1="36.7142408%" y1="6.97128771%" x2="96.604709%" y2="39.1462229%" id="linearGradient-1">
            <stop stop-color="#F79744" offset="0%"></stop>
            <stop stop-color="#F14582" offset="100%"></stop>
        </linearGradient>
        <linearGradient x1="93.1486148%" y1="50%" x2="50%" y2="54.3679779%" id="linearGradient-2">
            <stop stop-color="#F3835C" offset="0%"></stop>
            <stop stop-color="#F2567D" offset="100%"></stop>
        </linearGradient>
        <linearGradient x1="-4.58823974%" y1="43.7639826%" x2="106.14394%" y2="43.7639826%" id="linearGradient-3">
            <stop stop-color="#F14A85" offset="0%"></stop>
            <stop stop-color="#F4974F" offset="100%"></stop>
        </linearGradient>
        <linearGradient x1="94.3068603%" y1="47.6420975%" x2="2.83461848%" y2="47.6420975%" id="linearGradient-4">
            <stop stop-color="#F68F61" offset="0%"></stop>
            <stop stop-color="#C71A58" offset="100%"></stop>
        </linearGradient>
    </defs>
    <g id="系统" stroke="none" stroke-width="1" fill="none" fill-rule="evenodd">
        <g id="LOGO设计" transform="translate(-866.000000, -615.000000)" stroke-width="20">
            <g id="编组" transform="translate(866.000000, 610.000000)">
                <path d="M187.757575,19.664462 C178.628713,14.5720502 167.507332,14.598583 158.402872,19.7344951 L25.2602272,94.8415239 C15.8318387,100.160167 10,110.145715 10,120.970801 L10,240.871974 C10,251.594192 15.7224647,261.501255 25.0103021,266.858682 L123.627327,323.743127 C132.998825,329.14881 144.554961,329.089905 153.870864,323.588964 L289.95483,243.232852 C299.093541,237.836542 304.700991,228.013327 304.700991,217.400306 L304.700991,102.516718 C304.700991,91.640406 298.814316,81.6159589 289.31592,76.3174079 L187.757575,19.664462 Z" id="多边形" stroke="url(#linearGradient-1)" transform="translate(157.350495, 172.035024) scale(-1, 1) translate(-157.350495, -172.035024) "></path>
                <g id="编组-2" transform="translate(78.000000, 173.000000)" stroke="url(#linearGradient-2)" stroke-linecap="round">
                    <path d="M0,57.0054001 L89.2746926,4.39350874 C93.8884368,1.67450964 99.6018074,1.62151195 104.265197,4.2544556 L203,60" id="路径-46"></path>
                </g>
                <path d="M226.505717,21.9697958 C217.376855,16.877384 206.255474,16.9039169 197.151014,22.0398289 L64.008369,97.1468578 C54.5799805,102.465501 48.7481418,112.451049 48.7481418,123.276134 L48.7481418,243.177308 C48.7481418,253.899525 54.4706064,263.806589 63.7584438,269.164016 L162.375469,326.04846 C171.746967,331.454144 183.303103,331.395239 192.619006,325.894298 L328.702972,245.538186 C337.841682,240.141875 343.449132,230.318661 343.449132,219.70564 L343.449132,104.822052 C343.449132,93.9457399 337.562457,83.9212928 328.064062,78.6227418 L226.505717,21.9697958 Z" id="多边形" stroke="url(#linearGradient-3)"></path>
                <path d="M194.385716,40.2671369 C185.118959,34.777824 173.620707,34.677382 164.259469,40.0039719 L63.8787033,97.1211119 C54.5178542,102.44748 48.730491,112.382972 48.7152352,123.153091 L48.4818652,287.904533 C48.4666711,298.631077 54.1796835,308.549562 63.46585,313.918555 L163.213942,371.590015 C172.626756,377.032231 184.247434,376.955502 193.587561,371.389462 L289.833873,314.033632 C298.902858,308.629174 304.463622,298.855653 304.476218,288.298452 L304.673761,122.731298 C304.686421,112.120398 299.092908,102.29213 289.963527,96.8841944 L194.385716,40.2671369 Z" id="多边形" stroke="url(#linearGradient-4)"></path>
            </g>
        </g>
    </g>
</svg>